<?xml version="1.0" encoding="UTF-8" standalone="no"?>
<!DOCTYPE svg PUBLIC "-//W3C//DTD SVG 1.1//EN"
 "http://www.w3.org/Graphics/SVG/1.1/DTD/svg11.dtd">
<!-- Generated by graphviz version 7.0.4 (20221203.1631)
 -->
<!-- Title: Tree Pages: 1 -->
<svg width="720pt" height="435pt"
 viewBox="0.00 0.00 720.00 434.80" xmlns="http://www.w3.org/2000/svg" xmlns:xlink="http://www.w3.org/1999/xlink">
<g id="graph0" class="graph" transform="scale(0.873786 0.873786) rotate(0) translate(4 493.6)">
<title>Tree</title>
<polygon fill="white" stroke="none" points="-4,4 -4,-493.6 820,-493.6 820,4 -4,4"/>
<!-- 0 -->
<g id="node1" class="node">
<title>0</title>
<path fill="#f0b78d" stroke="black" d="M498,-460C498,-460 322,-460 322,-460 316,-460 310,-454 310,-448 310,-448 310,-404 310,-404 310,-398 316,-392 322,-392 322,-392 498,-392 498,-392 504,-392 510,-398 510,-404 510,-404 510,-448 510,-448 510,-454 504,-460 498,-460"/>
<text text-anchor="start" x="370.5" y="-444.8" font-family="Helvetica,sans-Serif" font-size="14.00">fruitset ≤ 0.5</text>
<text text-anchor="start" x="318" y="-429.8" font-family="Helvetica,sans-Serif" font-size="14.00">squared_error = 1807533.57</text>
<text text-anchor="start" x="354" y="-414.8" font-family="Helvetica,sans-Serif" font-size="14.00">samples = 10702</text>
<text text-anchor="start" x="363" y="-399.8" font-family="Helvetica,sans-Serif" font-size="14.00">value = 6043.3</text>
</g>
<!-- 1 -->
<g id="node2" class="node">
<title>1</title>
<path fill="#f8decb" stroke="black" d="M393,-265C393,-265 217,-265 217,-265 211,-265 205,-259 205,-253 205,-253 205,-209 205,-209 205,-203 211,-197 217,-197 217,-197 393,-197 393,-197 399,-197 405,-203 405,-209 405,-209 405,-253 405,-253 405,-259 399,-265 393,-265"/>
<text text-anchor="start" x="261.5" y="-249.8" font-family="Helvetica,sans-Serif" font-size="14.00">fruitset ≤ 0.44</text>
<text text-anchor="start" x="213" y="-234.8" font-family="Helvetica,sans-Serif" font-size="14.00">squared_error = 1007496.61</text>
<text text-anchor="start" x="253.5" y="-219.8" font-family="Helvetica,sans-Serif" font-size="14.00">samples = 5055</text>
<text text-anchor="start" x="253.5" y="-204.8" font-family="Helvetica,sans-Serif" font-size="14.00">value = 4984.98</text>
</g>
<!-- 0&#45;&gt;1 -->
<g id="edge1" class="edge">
<title>0&#45;&gt;1</title>
<path fill="none" stroke="black" d="M391.95,-391.82C374.45,-359.65 347.79,-310.66 328.61,-275.4"/>
<polygon fill="black" stroke="black" points="331.74,-273.83 323.89,-266.72 325.59,-277.18 331.74,-273.83"/>
<text text-anchor="middle" x="316.09" y="-285.67" font-family="Helvetica,sans-Serif" font-size="14.00">True</text>
</g>
<!-- 2 -->
<g id="node5" class="node">
<title>2</title>
<path fill="#e99356" stroke="black" d="M595,-265C595,-265 435,-265 435,-265 429,-265 423,-259 423,-253 423,-253 423,-209 423,-209 423,-203 429,-197 435,-197 435,-197 595,-197 595,-197 601,-197 607,-203 607,-209 607,-209 607,-253 607,-253 607,-259 601,-265 595,-265"/>
<text text-anchor="start" x="473" y="-249.8" font-family="Helvetica,sans-Serif" font-size="14.00">seeds ≤ 39.1</text>
<text text-anchor="start" x="431" y="-234.8" font-family="Helvetica,sans-Serif" font-size="14.00">squared_error = 623556.9</text>
<text text-anchor="start" x="463.5" y="-219.8" font-family="Helvetica,sans-Serif" font-size="14.00">samples = 5647</text>
<text text-anchor="start" x="463.5" y="-204.8" font-family="Helvetica,sans-Serif" font-size="14.00">value = 6990.67</text>
</g>
<!-- 0&#45;&gt;2 -->
<g id="edge4" class="edge">
<title>0&#45;&gt;2</title>
<path fill="none" stroke="black" d="M428.05,-391.82C445.55,-359.65 472.21,-310.66 491.39,-275.4"/>
<polygon fill="black" stroke="black" points="494.41,-277.18 496.11,-266.72 488.26,-273.83 494.41,-277.18"/>
<text text-anchor="middle" x="503.91" y="-285.67" font-family="Helvetica,sans-Serif" font-size="14.00">False</text>
</g>
<!-- 3 -->
<g id="node3" class="node">
<title>3</title>
<path fill="#ffffff" stroke="black" d="M180,-76.5C180,-76.5 12,-76.5 12,-76.5 6,-76.5 0,-70.5 0,-64.5 0,-64.5 0,-35.5 0,-35.5 0,-29.5 6,-23.5 12,-23.5 12,-23.5 180,-23.5 180,-23.5 186,-23.5 192,-29.5 192,-35.5 192,-35.5 192,-64.5 192,-64.5 192,-70.5 186,-76.5 180,-76.5"/>
<text text-anchor="start" x="8" y="-61.3" font-family="Helvetica,sans-Serif" font-size="14.00">squared_error = 611797.91</text>
<text text-anchor="start" x="44.5" y="-46.3" font-family="Helvetica,sans-Serif" font-size="14.00">samples = 1978</text>
<text text-anchor="start" x="44.5" y="-31.3" font-family="Helvetica,sans-Serif" font-size="14.00">value = 4102.16</text>
</g>
<!-- 1&#45;&gt;3 -->
<g id="edge2" class="edge">
<title>1&#45;&gt;3</title>
<path fill="none" stroke="black" d="M266.18,-196.75C228.69,-164.65 172.25,-116.3 134.78,-84.21"/>
<polygon fill="black" stroke="black" points="137.17,-81.65 127.3,-77.81 132.62,-86.97 137.17,-81.65"/>
</g>
<!-- 4 -->
<g id="node4" class="node">
<title>4</title>
<path fill="#f4c9aa" stroke="black" d="M390,-76.5C390,-76.5 222,-76.5 222,-76.5 216,-76.5 210,-70.5 210,-64.5 210,-64.5 210,-35.5 210,-35.5 210,-29.5 216,-23.5 222,-23.5 222,-23.5 390,-23.5 390,-23.5 396,-23.5 402,-29.5 402,-35.5 402,-35.5 402,-64.5 402,-64.5 402,-70.5 396,-76.5 390,-76.5"/>
<text text-anchor="start" x="218" y="-61.3" font-family="Helvetica,sans-Serif" font-size="14.00">squared_error = 438795.71</text>
<text text-anchor="start" x="254.5" y="-46.3" font-family="Helvetica,sans-Serif" font-size="14.00">samples = 3077</text>
<text text-anchor="start" x="254.5" y="-31.3" font-family="Helvetica,sans-Serif" font-size="14.00">value = 5552.48</text>
</g>
<!-- 1&#45;&gt;4 -->
<g id="edge3" class="edge">
<title>1&#45;&gt;4</title>
<path fill="none" stroke="black" d="M305.19,-196.75C305.36,-165.87 305.61,-119.95 305.79,-87.93"/>
<polygon fill="black" stroke="black" points="309.29,-88.35 305.85,-78.33 302.29,-88.32 309.29,-88.35"/>
</g>
<!-- 5 -->
<g id="node6" class="node">
<title>5</title>
<path fill="#eca470" stroke="black" d="M594,-76.5C594,-76.5 434,-76.5 434,-76.5 428,-76.5 422,-70.5 422,-64.5 422,-64.5 422,-35.5 422,-35.5 422,-29.5 428,-23.5 434,-23.5 434,-23.5 594,-23.5 594,-23.5 600,-23.5 606,-29.5 606,-35.5 606,-35.5 606,-64.5 606,-64.5 606,-70.5 600,-76.5 594,-76.5"/>
<text text-anchor="start" x="430" y="-61.3" font-family="Helvetica,sans-Serif" font-size="14.00">squared_error = 399456.8</text>
<text text-anchor="start" x="462.5" y="-46.3" font-family="Helvetica,sans-Serif" font-size="14.00">samples = 2948</text>
<text text-anchor="start" x="462.5" y="-31.3" font-family="Helvetica,sans-Serif" font-size="14.00">value = 6544.02</text>
</g>
<!-- 2&#45;&gt;5 -->
<g id="edge5" class="edge">
<title>2&#45;&gt;5</title>
<path fill="none" stroke="black" d="M514.81,-196.75C514.64,-165.87 514.39,-119.95 514.21,-87.93"/>
<polygon fill="black" stroke="black" points="517.71,-88.32 514.15,-78.33 510.71,-88.35 517.71,-88.32"/>
</g>
<!-- 6 -->
<g id="node7" class="node">
<title>6</title>
<path fill="#e58139" stroke="black" d="M804,-76.5C804,-76.5 636,-76.5 636,-76.5 630,-76.5 624,-70.5 624,-64.5 624,-64.5 624,-35.5 624,-35.5 624,-29.5 630,-23.5 636,-23.5 636,-23.5 804,-23.5 804,-23.5 810,-23.5 816,-29.5 816,-35.5 816,-35.5 816,-64.5 816,-64.5 816,-70.5 810,-76.5 804,-76.5"/>
<text text-anchor="start" x="632" y="-61.3" font-family="Helvetica,sans-Serif" font-size="14.00">squared_error = 412428.17</text>
<text text-anchor="start" x="668.5" y="-46.3" font-family="Helvetica,sans-Serif" font-size="14.00">samples = 2699</text>
<text text-anchor="start" x="668.5" y="-31.3" font-family="Helvetica,sans-Serif" font-size="14.00">value = 7478.53</text>
</g>
<!-- 2&#45;&gt;6 -->
<g id="edge6" class="edge">
<title>2&#45;&gt;6</title>
<path fill="none" stroke="black" d="M553.08,-196.75C589.85,-164.65 645.21,-116.3 681.97,-84.21"/>
<polygon fill="black" stroke="black" points="684.06,-87.03 689.29,-77.82 679.45,-81.76 684.06,-87.03"/>
</g>
</g>
</svg>
