<?xml version="1.0" encoding="UTF-8" standalone="no"?>
<!DOCTYPE svg PUBLIC "-//W3C//DTD SVG 1.1//EN"
 "http://www.w3.org/Graphics/SVG/1.1/DTD/svg11.dtd">
<!-- Generated by graphviz version 7.0.4 (20221203.1631)
 -->
<!-- Title: Tree Pages: 1 -->
<svg width="720pt" height="435pt"
 viewBox="0.00 0.00 720.00 434.78" xmlns="http://www.w3.org/2000/svg" xmlns:xlink="http://www.w3.org/1999/xlink">
<g id="graph0" class="graph" transform="scale(0.86747 0.86747) rotate(0) translate(4 497.2)">
<title>Tree</title>
<polygon fill="white" stroke="none" points="-4,4 -4,-497.2 826,-497.2 826,4 -4,4"/>
<!-- 0 -->
<g id="node1" class="node">
<title>0</title>
<path fill="#f0b78e" stroke="black" d="M499,-463C499,-463 323,-463 323,-463 317,-463 311,-457 311,-451 311,-451 311,-407 311,-407 311,-401 317,-395 323,-395 323,-395 499,-395 499,-395 505,-395 511,-401 511,-407 511,-407 511,-451 511,-451 511,-457 505,-463 499,-463"/>
<text text-anchor="start" x="371.5" y="-447.8" font-family="Helvetica,sans-Serif" font-size="14.00">fruitset ≤ 0.5</text>
<text text-anchor="start" x="319" y="-432.8" font-family="Helvetica,sans-Serif" font-size="14.00">squared_error = 1753129.37</text>
<text text-anchor="start" x="355" y="-417.8" font-family="Helvetica,sans-Serif" font-size="14.00">samples = 10702</text>
<text text-anchor="start" x="359.5" y="-402.8" font-family="Helvetica,sans-Serif" font-size="14.00">value = 6052.74</text>
</g>
<!-- 1 -->
<g id="node2" class="node">
<title>1</title>
<path fill="#f8dfcc" stroke="black" d="M386,-266C386,-266 226,-266 226,-266 220,-266 214,-260 214,-254 214,-254 214,-210 214,-210 214,-204 220,-198 226,-198 226,-198 386,-198 386,-198 392,-198 398,-204 398,-210 398,-210 398,-254 398,-254 398,-260 392,-266 386,-266"/>
<text text-anchor="start" x="262.5" y="-250.8" font-family="Helvetica,sans-Serif" font-size="14.00">fruitset ≤ 0.44</text>
<text text-anchor="start" x="222" y="-235.8" font-family="Helvetica,sans-Serif" font-size="14.00">squared_error = 962451.0</text>
<text text-anchor="start" x="254.5" y="-220.8" font-family="Helvetica,sans-Serif" font-size="14.00">samples = 4973</text>
<text text-anchor="start" x="254.5" y="-205.8" font-family="Helvetica,sans-Serif" font-size="14.00">value = 4997.95</text>
</g>
<!-- 0&#45;&gt;1 -->
<g id="edge1" class="edge">
<title>0&#45;&gt;1</title>
<path fill="none" stroke="black" d="M393.19,-394.92C375.54,-362.14 348.42,-311.79 329.12,-275.94"/>
<polygon fill="black" stroke="black" points="332.44,-274.72 324.62,-267.57 326.28,-278.04 332.44,-274.72"/>
<text text-anchor="middle" x="316.72" y="-286.49" font-family="Helvetica,sans-Serif" font-size="14.00">True</text>
</g>
<!-- 2 -->
<g id="node5" class="node">
<title>2</title>
<path fill="#e99457" stroke="black" d="M600,-266C600,-266 432,-266 432,-266 426,-266 420,-260 420,-254 420,-254 420,-210 420,-210 420,-204 426,-198 432,-198 432,-198 600,-198 600,-198 606,-198 612,-204 612,-210 612,-210 612,-254 612,-254 612,-260 606,-266 600,-266"/>
<text text-anchor="start" x="470" y="-250.8" font-family="Helvetica,sans-Serif" font-size="14.00">seeds ≤ 39.11</text>
<text text-anchor="start" x="428" y="-235.8" font-family="Helvetica,sans-Serif" font-size="14.00">squared_error = 635377.77</text>
<text text-anchor="start" x="464.5" y="-220.8" font-family="Helvetica,sans-Serif" font-size="14.00">samples = 5729</text>
<text text-anchor="start" x="464.5" y="-205.8" font-family="Helvetica,sans-Serif" font-size="14.00">value = 6968.34</text>
</g>
<!-- 0&#45;&gt;2 -->
<g id="edge4" class="edge">
<title>0&#45;&gt;2</title>
<path fill="none" stroke="black" d="M428.81,-394.92C446.46,-362.14 473.58,-311.79 492.88,-275.94"/>
<polygon fill="black" stroke="black" points="495.72,-278.04 497.38,-267.57 489.56,-274.72 495.72,-278.04"/>
<text text-anchor="middle" x="505.28" y="-286.49" font-family="Helvetica,sans-Serif" font-size="14.00">False</text>
</g>
<!-- 3 -->
<g id="node3" class="node">
<title>3</title>
<path fill="#ffffff" stroke="black" d="M180,-76.5C180,-76.5 12,-76.5 12,-76.5 6,-76.5 0,-70.5 0,-64.5 0,-64.5 0,-35.5 0,-35.5 0,-29.5 6,-23.5 12,-23.5 12,-23.5 180,-23.5 180,-23.5 186,-23.5 192,-29.5 192,-35.5 192,-35.5 192,-64.5 192,-64.5 192,-70.5 186,-76.5 180,-76.5"/>
<text text-anchor="start" x="8" y="-61.3" font-family="Helvetica,sans-Serif" font-size="14.00">squared_error = 493280.52</text>
<text text-anchor="start" x="44.5" y="-46.3" font-family="Helvetica,sans-Serif" font-size="14.00">samples = 1995</text>
<text text-anchor="start" x="44.5" y="-31.3" font-family="Helvetica,sans-Serif" font-size="14.00">value = 4140.09</text>
</g>
<!-- 1&#45;&gt;3 -->
<g id="edge2" class="edge">
<title>1&#45;&gt;3</title>
<path fill="none" stroke="black" d="M266.99,-197.57C229.33,-165.28 172.61,-116.67 134.96,-84.39"/>
<polygon fill="black" stroke="black" points="137.31,-81.8 127.44,-77.95 132.76,-87.12 137.31,-81.8"/>
</g>
<!-- 4 -->
<g id="node4" class="node">
<title>4</title>
<path fill="#f4c9aa" stroke="black" d="M390,-76.5C390,-76.5 222,-76.5 222,-76.5 216,-76.5 210,-70.5 210,-64.5 210,-64.5 210,-35.5 210,-35.5 210,-29.5 216,-23.5 222,-23.5 222,-23.5 390,-23.5 390,-23.5 396,-23.5 402,-29.5 402,-35.5 402,-35.5 402,-64.5 402,-64.5 402,-70.5 396,-76.5 390,-76.5"/>
<text text-anchor="start" x="218" y="-61.3" font-family="Helvetica,sans-Serif" font-size="14.00">squared_error = 453482.55</text>
<text text-anchor="start" x="254.5" y="-46.3" font-family="Helvetica,sans-Serif" font-size="14.00">samples = 2978</text>
<text text-anchor="start" x="254.5" y="-31.3" font-family="Helvetica,sans-Serif" font-size="14.00">value = 5572.64</text>
</g>
<!-- 1&#45;&gt;4 -->
<g id="edge3" class="edge">
<title>1&#45;&gt;4</title>
<path fill="none" stroke="black" d="M306,-197.57C306,-166.51 306,-120.33 306,-88.14"/>
<polygon fill="black" stroke="black" points="309.5,-88.48 306,-78.48 302.5,-88.48 309.5,-88.48"/>
</g>
<!-- 5 -->
<g id="node6" class="node">
<title>5</title>
<path fill="#eda673" stroke="black" d="M600,-76.5C600,-76.5 432,-76.5 432,-76.5 426,-76.5 420,-70.5 420,-64.5 420,-64.5 420,-35.5 420,-35.5 420,-29.5 426,-23.5 432,-23.5 432,-23.5 600,-23.5 600,-23.5 606,-23.5 612,-29.5 612,-35.5 612,-35.5 612,-64.5 612,-64.5 612,-70.5 606,-76.5 600,-76.5"/>
<text text-anchor="start" x="428" y="-61.3" font-family="Helvetica,sans-Serif" font-size="14.00">squared_error = 390369.94</text>
<text text-anchor="start" x="464.5" y="-46.3" font-family="Helvetica,sans-Serif" font-size="14.00">samples = 3007</text>
<text text-anchor="start" x="464.5" y="-31.3" font-family="Helvetica,sans-Serif" font-size="14.00">value = 6504.89</text>
</g>
<!-- 2&#45;&gt;5 -->
<g id="edge5" class="edge">
<title>2&#45;&gt;5</title>
<path fill="none" stroke="black" d="M516,-197.57C516,-166.51 516,-120.33 516,-88.14"/>
<polygon fill="black" stroke="black" points="519.5,-88.48 516,-78.48 512.5,-88.48 519.5,-88.48"/>
</g>
<!-- 6 -->
<g id="node7" class="node">
<title>6</title>
<path fill="#e58139" stroke="black" d="M810,-76.5C810,-76.5 642,-76.5 642,-76.5 636,-76.5 630,-70.5 630,-64.5 630,-64.5 630,-35.5 630,-35.5 630,-29.5 636,-23.5 642,-23.5 642,-23.5 810,-23.5 810,-23.5 816,-23.5 822,-29.5 822,-35.5 822,-35.5 822,-64.5 822,-64.5 822,-70.5 816,-76.5 810,-76.5"/>
<text text-anchor="start" x="638" y="-61.3" font-family="Helvetica,sans-Serif" font-size="14.00">squared_error = 406663.99</text>
<text text-anchor="start" x="674.5" y="-46.3" font-family="Helvetica,sans-Serif" font-size="14.00">samples = 2722</text>
<text text-anchor="start" x="679" y="-31.3" font-family="Helvetica,sans-Serif" font-size="14.00">value = 7480.3</text>
</g>
<!-- 2&#45;&gt;6 -->
<g id="edge6" class="edge">
<title>2&#45;&gt;6</title>
<path fill="none" stroke="black" d="M555.01,-197.57C592.67,-165.28 649.39,-116.67 687.04,-84.39"/>
<polygon fill="black" stroke="black" points="689.24,-87.12 694.56,-77.95 684.69,-81.8 689.24,-87.12"/>
</g>
</g>
</svg>
